<?xml version="1.0" encoding="utf-8"?>
<svg width="439.41058px" height="102px" viewBox="0 0 439.41058 102" version="1.1" xmlns:xlink="http://www.w3.org/1999/xlink" xmlns="http://www.w3.org/2000/svg">
  <defs>
    <path d="M439.411 0L439.411 0L439.411 102L0 102L0 0L439.411 0Z" id="path_1" />
    <clipPath id="clip_1">
      <use xlink:href="#path_1" clip-rule="evenodd" fill-rule="evenodd" />
    </clipPath>
  </defs>
  <g id="nitefox-logo" clip-path="url(#clip_1)">
    <path d="M439.411 0L439.411 0L439.411 102L0 102L0 0L439.411 0Z" id="nitefox-logo" fill="none" stroke="none" />
    <g id="Group" transform="translate(-0.00033569336 -0.0014648438)">
      <path d="M0.148003 56.3794C-0.00777435 56.1693 -0.043129 55.8936 0.0541 55.6508L22.2154 0.472237C22.3391 0.164566 22.6496 -0.0261536 22.981 0.00291443L25.7981 0.251717C26.1284 0.280785 26.4002 0.522896 26.4687 0.847687L32.7735 31.0633C32.8464 31.412 33.1536 31.6615 33.5104 31.6615L52.7015 31.6615C53.0579 31.6615 53.3654 31.412 53.4382 31.0633L59.7434 0.847687C59.8112 0.522896 60.0835 0.280785 60.4138 0.251717L63.2313 0.00291443C63.5616 -0.0261536 63.8722 0.164566 63.9958 0.472237L86.1572 55.6508C86.2548 55.8936 86.2192 56.1693 86.0634 56.3794L52.6363 101.461C52.4943 101.653 52.2701 101.766 52.0318 101.766L34.1799 101.766C33.9412 101.766 33.717 101.653 33.5756 101.461L0.148003 56.3794L0.148003 56.3794ZM48.9271 65.2392L48.9271 47.7966C48.9271 47.381 48.5901 47.0442 48.1745 47.0442L38.0366 47.0442C37.6212 47.0442 37.2842 47.381 37.2842 47.7966L37.2842 65.2392C37.2842 65.6548 36.9473 65.9923 36.5319 65.9923L28.2816 65.9923C28.0032 65.9923 27.748 66.145 27.6176 66.3909C27.4862 66.636 27.5016 66.934 27.6574 67.1649L37.9802 82.5111C38.1205 82.7189 38.3536 82.8434 38.6044 82.8434L47.607 82.8434C47.8575 82.8434 48.0916 82.7189 48.2314 82.5111L58.5544 67.1649C58.7097 66.934 58.725 66.636 58.5943 66.3909C58.4635 66.145 58.2081 65.9923 57.93 65.9923L49.6796 65.9923C49.264 65.9923 48.9271 65.6548 48.9271 65.2392L48.9271 65.2392Z" id="Group" fill="#00E78E" fill-rule="evenodd" stroke="none" />
      <g id="Group" transform="translate(114.82068 14.115112)">
        <path d="M51.6473 42.9548L51.6473 72.0776C51.6473 72.5157 51.2922 72.8707 50.8541 72.8707L38.9576 72.8707C38.5195 72.8707 38.1644 72.5157 38.1644 72.0776L38.1644 44.4774C38.1644 40.2803 37.2145 37.1054 35.2358 34.9768C33.2806 32.8734 30.4848 31.8514 26.8705 31.8514C22.7372 31.8514 19.464 33.0723 17.068 35.5584C14.6554 38.0613 13.4832 41.6763 13.4832 46.3808L13.4832 72.0776C13.4832 72.5157 13.1281 72.8707 12.69 72.8707L0.793188 72.8707C0.355061 72.8707 0 72.5157 0 72.0776L0 21.2552C0 20.8171 0.355061 20.462 0.793188 20.462L12.1188 20.462C12.557 20.462 12.912 20.8171 12.912 21.2552C12.912 21.2552 12.912 25.8071 12.9123 25.8071C16.9693 21.8773 22.5365 19.8909 29.6307 19.8909C32.9674 19.8909 35.9764 20.3855 38.659 21.3669C41.3736 22.36 43.6894 23.8185 45.6095 25.7386C47.527 27.6559 49.0189 30.0667 50.0768 32.976C51.1204 35.846 51.6473 39.1716 51.6473 42.9548L51.6473 42.9548Z" id="Group" fill="#FFFFFF" fill-rule="evenodd" stroke="none" />
        <path d="M61.4902 20.4631L73.3867 20.4631C73.8248 20.4631 74.1801 20.8181 74.1801 21.2562L74.1801 72.0787C74.1801 72.5177 73.8248 72.8724 73.3867 72.8724L61.4902 72.8724C61.0521 72.8724 60.6968 72.5177 60.6968 72.0787L60.6968 21.2562C60.6968 20.8181 61.0521 20.4631 61.4902 20.4631L61.4902 20.4631Z" id="Group" fill="#FFFFFF" fill-rule="evenodd" stroke="none" />
        <path d="M61.4902 0.000274658L73.3867 0.000274658C73.8248 0.000274658 74.1801 0.354928 74.1801 0.793978L74.1801 11.504C74.1801 11.9431 73.8248 12.2977 73.3867 12.2977L61.4902 12.2977C61.0521 12.2977 60.6968 11.9431 60.6968 11.504L60.6968 0.793978C60.6968 0.354928 61.0521 0.000274658 61.4902 0.000274658L61.4902 0.000274658Z" id="Group" fill="#00E78E" fill-rule="evenodd" stroke="none" />
        <path d="M120.181 69.9315C118.705 71.1378 116.916 72.0469 114.805 72.65C112.736 73.2407 110.554 73.5369 108.258 73.5369C102.432 73.5369 97.9418 71.9834 94.766 68.9387C91.5797 65.8859 89.9527 61.4525 89.9527 55.6128C89.9527 55.6128 89.9527 31.9465 89.9527 31.9465L82.3696 31.9465C81.9323 31.9465 81.5757 31.5914 81.5757 31.1533L81.5757 21.6361C81.5757 21.198 81.9323 20.8429 82.3696 20.8429L89.9527 20.8429L89.9527 10.0248C89.9527 9.58674 90.3067 9.23166 90.744 9.23166L102.641 9.23166C103.081 9.23166 103.435 9.58674 103.435 10.0248L103.435 20.8429L116.253 20.8429C116.69 20.8429 117.044 21.198 117.044 21.6361L117.044 31.1533C117.044 31.5914 116.69 31.9465 116.253 31.9465L103.435 31.9465L103.435 55.3272C103.435 57.6201 103.924 59.3525 104.986 60.4989C106.027 61.6245 107.602 62.1478 109.685 62.1478C112.153 62.1478 114.212 61.5157 115.857 60.2235C116.055 60.0686 116.312 60.016 116.555 60.0816C116.797 60.1472 116.995 60.3235 117.086 60.557L120.415 69.0272C120.543 69.3479 120.446 69.7134 120.181 69.9315L120.181 69.9315Z" id="Group" fill="#FFFFFF" fill-rule="evenodd" stroke="none" />
        <path d="M176.742 51.2667C176.742 51.2667 137.843 51.2667 137.843 51.2665C138.616 54.4171 140.266 56.9229 142.804 58.7793C145.629 60.8438 149.138 61.8622 153.329 61.8622C158.681 61.8622 163.096 60.1076 166.564 56.5793C166.717 56.4218 166.931 56.3359 167.152 56.3427C167.373 56.3492 167.581 56.4478 167.727 56.6147L174.102 63.9429C174.36 64.2373 174.363 64.6739 174.113 64.973C171.746 67.8006 168.755 69.9399 165.14 71.3864C161.563 72.8174 157.53 73.5369 153.043 73.5369C148.753 73.5369 144.837 72.8677 141.294 71.5351C137.733 70.196 134.682 68.3316 132.134 65.9471C129.578 63.5545 127.61 60.7199 126.235 57.4425C124.863 54.1789 124.173 50.5894 124.173 46.6771C124.108 42.8848 124.764 39.3377 126.139 36.0355C127.511 32.7326 129.408 29.8717 131.829 27.4516C134.253 25.0296 137.132 23.1462 140.469 21.8042C143.799 20.4657 147.389 19.8266 151.239 19.8909C155.089 19.8914 158.626 20.5472 161.857 21.8521C165.101 23.1626 167.902 24.9981 170.26 27.3565C172.619 29.7158 174.456 32.5655 175.766 35.9077C177.07 39.2309 177.723 42.9121 177.723 46.952C177.723 47.4088 177.708 47.9313 177.676 48.5188C177.643 49.096 177.596 49.7694 177.531 50.5392C177.497 50.9504 177.153 51.2667 176.742 51.2667L176.742 51.2667ZM137.712 41.7808C137.712 41.7808 164.671 41.7808 164.671 41.7808C164.075 38.7137 162.661 36.193 160.42 34.2237C157.96 32.0639 154.893 30.9948 151.233 30.9948C147.631 30.9948 144.58 32.0365 142.086 34.1389C139.811 36.0579 138.358 38.608 137.712 41.7808L137.712 41.7808Z" id="Group" fill="#FFFFFF" fill-rule="evenodd" stroke="none" />
        <path d="M200.376 18.5906L200.376 20.8429L213.574 20.8429C214.011 20.8429 214.365 21.198 214.365 21.6361L214.365 31.1533C214.365 31.5914 214.011 31.9465 213.574 31.9465L200.756 31.9465L200.756 72.0776C200.756 72.5157 200.402 72.8708 199.962 72.8708L188.065 72.8708C187.628 72.8708 187.274 72.5157 187.274 72.0776C187.274 72.0776 187.274 31.9465 187.274 31.9465L179.691 31.9465C179.253 31.9465 178.897 31.5914 178.897 31.1533L178.897 21.6361C178.897 21.198 179.253 20.8429 179.691 20.8429C179.691 20.8429 187.274 20.8429 187.274 20.8426L187.274 18.4001C187.274 12.6343 188.955 8.13754 192.269 4.89008C195.575 1.65015 200.227 0 206.243 0C211.01 0 214.743 0.986091 217.458 2.90566C217.752 3.11341 217.869 3.49268 217.741 3.83006L214.412 12.7762C214.326 13.0073 214.136 13.1851 213.902 13.2575C213.665 13.3301 213.41 13.289 213.209 13.1463C211.379 11.8481 209.344 11.1989 207.1 11.1989C204.861 11.1989 203.166 11.769 202.047 12.9886C200.904 14.2305 200.376 16.1061 200.376 18.5906L200.376 18.5906Z" id="Group" fill="#FFFFFF" fill-rule="evenodd" stroke="none" />
        <path d="M215.826 46.6635L215.826 46.6596C215.826 42.7413 216.531 39.1497 217.937 35.884C219.342 32.611 221.274 29.797 223.731 27.4403C226.181 25.0865 229.107 23.2378 232.507 21.8974C235.893 20.5617 239.608 19.8909 243.648 19.8909C247.686 19.8909 251.401 20.5617 254.787 21.8974C258.184 23.2367 261.126 25.0845 263.607 27.4367C266.096 29.7944 268.045 32.6095 269.454 35.884C270.859 39.1515 271.565 42.7452 271.565 46.6664C271.565 50.5875 270.859 54.1812 269.454 57.4487C268.048 60.7212 266.098 63.5511 263.612 65.94C261.129 68.3261 258.187 70.1905 254.787 71.5306C251.401 72.8655 247.691 73.5364 243.659 73.5369C239.743 73.602 236.073 72.9473 232.645 71.5767C229.216 70.2056 226.249 68.3269 223.734 65.9434C221.212 63.5534 219.246 60.7056 217.84 57.3985C216.435 54.0977 215.76 50.5196 215.826 46.6635L215.826 46.6635ZM257.987 46.6664C257.987 44.4229 257.625 42.3607 256.898 40.481C256.175 38.6166 255.186 37.0213 253.923 35.6981C252.668 34.3825 251.156 33.367 249.391 32.6493C247.613 31.9256 245.697 31.5659 243.648 31.5659C241.537 31.5659 239.608 31.9243 237.859 32.6477C236.125 33.3657 234.628 34.382 233.371 35.6981C232.111 37.0185 231.137 38.6103 230.448 40.4705C229.75 42.3534 229.404 44.419 229.404 46.6664C229.404 48.9738 229.747 51.054 230.448 52.9059C231.137 54.7367 232.111 56.3138 233.371 57.6346C234.628 58.951 236.125 59.9673 237.859 60.6853C239.608 61.4087 241.537 61.7669 243.648 61.7669C245.697 61.7669 247.613 61.4071 249.391 60.6834C251.156 59.9657 252.668 58.9502 253.923 57.6346C255.186 56.3109 256.177 54.7305 256.898 52.8952C257.627 51.0465 257.987 48.9697 257.987 46.6664L257.987 46.6664Z" id="Group" fill="#FFFFFF" fill-rule="evenodd" stroke="none" />
        <path d="M309.44 72.5496L297.036 55.8005L284.541 72.5519C284.39 72.7526 284.156 72.8708 283.906 72.8708L270.773 72.8708C270.468 72.8708 270.192 72.6992 270.06 72.4285C269.927 72.1575 269.958 71.8342 270.143 71.5947C270.143 71.5947 289.57 46.2824 289.57 46.2824L270.997 21.7339C270.814 21.4939 270.783 21.1717 270.919 20.902C271.051 20.6326 271.327 20.462 271.627 20.462L284.856 20.462C285.106 20.462 285.343 20.58 285.491 20.7799L297.325 36.5869L309.157 20.7799C309.308 20.58 309.542 20.462 309.792 20.462L322.641 20.462C322.943 20.462 323.219 20.6336 323.352 20.9043C323.485 21.1751 323.453 21.4981 323.271 21.7379L304.606 46.0955L324.128 71.5955C324.31 71.835 324.341 72.1581 324.208 72.4288C324.075 72.6995 323.8 72.8708 323.498 72.8708L310.078 72.8708C309.826 72.8708 309.589 72.7516 309.44 72.5496L309.44 72.5496Z" id="Group" fill="#FFFFFF" fill-rule="evenodd" stroke="none" />
      </g>
    </g>
  </g>
</svg>