<?xml version="1.0" encoding="UTF-8" standalone="no"?>
<!DOCTYPE svg PUBLIC "-//W3C//DTD SVG 1.1//EN" "http://www.w3.org/Graphics/SVG/1.1/DTD/svg11.dtd">
<svg width="100%" height="100%" viewBox="0 0 900 300" version="1.1" xmlns="http://www.w3.org/2000/svg" xmlns:xlink="http://www.w3.org/1999/xlink" xml:space="preserve" xmlns:serif="http://www.serif.com/" style="fill-rule:evenodd;clip-rule:evenodd;stroke-linecap:round;stroke-linejoin:round;stroke-miterlimit:1.5;">
    <g id="Banner" transform="matrix(0.46875,0,0,0.277778,0,0)">
        <rect x="0" y="0" width="1920" height="1080" style="fill:none;"/>
        <clipPath id="_clip1">
            <rect x="0" y="0" width="1920" height="1080"/>
        </clipPath>
        <g clip-path="url(#_clip1)">
            <g transform="matrix(2.26473,0,0,3.96886,-118.254,-110.658)">
                <path d="M900,35.138C900,31.13 896.626,27.882 892.464,27.882C813.486,27.882 138.73,27.882 59.751,27.882C55.589,27.882 52.215,31.13 52.215,35.138C52.215,73.69 52.215,254.192 52.215,292.744C52.215,296.751 55.589,300 59.751,300C138.73,300 813.486,300 892.464,300C896.626,300 900,296.751 900,292.744C900,254.192 900,73.69 900,35.138Z" style="fill:url(#_Linear2);"/>
                <clipPath id="_clip3">
                    <path d="M900,35.138C900,31.13 896.626,27.882 892.464,27.882C813.486,27.882 138.73,27.882 59.751,27.882C55.589,27.882 52.215,31.13 52.215,35.138C52.215,73.69 52.215,254.192 52.215,292.744C52.215,296.751 55.589,300 59.751,300C138.73,300 813.486,300 892.464,300C896.626,300 900,296.751 900,292.744C900,254.192 900,73.69 900,35.138Z"/>
                </clipPath>
                <g clip-path="url(#_clip3)">
                    <g transform="matrix(0.114291,0,0,0.0652172,-57.6424,29.8466)">
                        <g transform="matrix(2.77899,0,0,4.68955,-1213.3,-2658.45)">
                            <path d="M436.597,-86.158L649.028,-17.136L780.317,163.569L780.317,386.931L649.028,567.635L436.597,636.658L224.167,567.635L92.878,386.931L92.878,163.569L224.167,-17.136L436.597,-86.158Z" style="fill:rgb(0,231,142);fill-opacity:0.07;stroke:rgb(0,231,142);stroke-width:0.97px;"/>
                        </g>
                        <g transform="matrix(3.22026,0,0,5.43418,-1405.95,-2863.41)">
                            <path d="M436.597,-86.158L649.028,-17.136L780.317,163.569L780.317,386.931L649.028,567.635L436.597,636.658L224.167,567.635L92.878,386.931L92.878,163.569L224.167,-17.136L436.597,-86.158Z" style="fill:rgb(0,231,142);fill-opacity:0.07;stroke:rgb(0,231,142);stroke-width:0.84px;"/>
                        </g>
                        <g transform="matrix(3.73158,0,0,6.29705,-1629.2,-3100.91)">
                            <path d="M436.597,-86.158L649.028,-17.136L780.317,163.569L780.317,386.931L649.028,567.635L436.597,636.658L224.167,567.635L92.878,386.931L92.878,163.569L224.167,-17.136L436.597,-86.158Z" style="fill:rgb(0,231,142);fill-opacity:0.07;stroke:rgb(0,231,142);stroke-width:0.72px;"/>
                        </g>
                        <g transform="matrix(4.32411,0,0,7.29693,-1887.89,-3376.13)">
                            <path d="M436.597,-86.158L649.028,-17.136L780.317,163.569L780.317,386.931L649.028,567.635L436.597,636.658L224.167,567.635L92.878,386.931L92.878,163.569L224.167,-17.136L436.597,-86.158Z" style="fill:rgb(0,231,142);fill-opacity:0.07;stroke:rgb(0,231,142);stroke-width:0.62px;"/>
                        </g>
                        <g transform="matrix(5.01071,0,0,8.45557,-2187.66,-3695.05)">
                            <path d="M436.597,-86.158L649.028,-17.136L780.317,163.569L780.317,386.931L649.028,567.635L436.597,636.658L224.167,567.635L92.878,386.931L92.878,163.569L224.167,-17.136L436.597,-86.158Z" style="fill:rgb(0,231,142);fill-opacity:0.07;stroke:rgb(0,231,142);stroke-width:0.54px;"/>
                        </g>
                        <g transform="matrix(5.80634,0,0,9.79819,-2535.03,-4064.6)">
                            <path d="M436.597,-86.158L649.028,-17.136L780.317,163.569L780.317,386.931L649.028,567.635L436.597,636.658L224.167,567.635L92.878,386.931L92.878,163.569L224.167,-17.136L436.597,-86.158Z" style="fill:rgb(0,231,142);fill-opacity:0.07;stroke:rgb(0,231,142);stroke-width:0.46px;"/>
                        </g>
                        <g transform="matrix(6.7283,0,0,11.354,-2937.56,-4492.84)">
                            <path d="M436.597,-86.158L649.028,-17.136L780.317,163.569L780.317,386.931L649.028,567.635L436.597,636.658L224.167,567.635L92.878,386.931L92.878,163.569L224.167,-17.136L436.597,-86.158Z" style="fill:rgb(0,231,142);fill-opacity:0.07;stroke:rgb(0,231,142);stroke-width:0.4px;"/>
                        </g>
                        <g transform="matrix(7.79665,0,0,13.1569,-3404,-4989.07)">
                            <path d="M436.597,-86.158L649.028,-17.136L780.317,163.569L780.317,386.931L649.028,567.635L436.597,636.658L224.167,567.635L92.878,386.931L92.878,163.569L224.167,-17.136L436.597,-86.158Z" style="fill:rgb(0,231,142);fill-opacity:0.07;stroke:rgb(0,231,142);stroke-width:0.34px;"/>
                        </g>
                        <g transform="matrix(9.03465,0,0,15.246,-3944.5,-5564.1)">
                            <path d="M436.597,-86.158L649.028,-17.136L780.317,163.569L780.317,386.931L649.028,567.635L436.597,636.658L224.167,567.635L92.878,386.931L92.878,163.569L224.167,-17.136L436.597,-86.158Z" style="fill:rgb(0,231,142);fill-opacity:0.07;stroke:rgb(0,231,142);stroke-width:0.3px;"/>
                        </g>
                    </g>
                    <g transform="matrix(0.0959369,0,0,0.0547438,926.872,470.043)">
                        <g transform="matrix(3.22026,0,0,5.43418,-1405.95,-2863.41)">
                            <path d="M436.597,-86.158L649.028,-17.136L780.317,163.569L780.317,386.931L649.028,567.635L436.597,636.658L224.167,567.635L92.878,386.931L92.878,163.569L224.167,-17.136L436.597,-86.158Z" style="fill:rgb(0,231,142);fill-opacity:0.07;stroke:rgb(0,231,142);stroke-width:0.99px;"/>
                        </g>
                        <g transform="matrix(3.73158,0,0,6.29705,-1629.2,-3100.91)">
                            <path d="M436.597,-86.158L649.028,-17.136L780.317,163.569L780.317,386.931L649.028,567.635L436.597,636.658L224.167,567.635L92.878,386.931L92.878,163.569L224.167,-17.136L436.597,-86.158Z" style="fill:rgb(0,231,142);fill-opacity:0.07;stroke:rgb(0,231,142);stroke-width:0.86px;"/>
                        </g>
                        <g transform="matrix(4.32411,0,0,7.29693,-1887.89,-3376.13)">
                            <path d="M436.597,-86.158L649.028,-17.136L780.317,163.569L780.317,386.931L649.028,567.635L436.597,636.658L224.167,567.635L92.878,386.931L92.878,163.569L224.167,-17.136L436.597,-86.158Z" style="fill:rgb(0,231,142);fill-opacity:0.07;stroke:rgb(0,231,142);stroke-width:0.74px;"/>
                        </g>
                        <g transform="matrix(5.01071,0,0,8.45557,-2187.66,-3695.05)">
                            <path d="M436.597,-86.158L649.028,-17.136L780.317,163.569L780.317,386.931L649.028,567.635L436.597,636.658L224.167,567.635L92.878,386.931L92.878,163.569L224.167,-17.136L436.597,-86.158Z" style="fill:rgb(0,231,142);fill-opacity:0.07;stroke:rgb(0,231,142);stroke-width:0.64px;"/>
                        </g>
                        <g transform="matrix(5.80634,0,0,9.79819,-2535.03,-4064.6)">
                            <path d="M436.597,-86.158L649.028,-17.136L780.317,163.569L780.317,386.931L649.028,567.635L436.597,636.658L224.167,567.635L92.878,386.931L92.878,163.569L224.167,-17.136L436.597,-86.158Z" style="fill:rgb(0,231,142);fill-opacity:0.07;stroke:rgb(0,231,142);stroke-width:0.55px;"/>
                        </g>
                        <g transform="matrix(6.7283,0,0,11.354,-2937.56,-4492.84)">
                            <path d="M436.597,-86.158L649.028,-17.136L780.317,163.569L780.317,386.931L649.028,567.635L436.597,636.658L224.167,567.635L92.878,386.931L92.878,163.569L224.167,-17.136L436.597,-86.158Z" style="fill:rgb(0,231,142);fill-opacity:0.07;stroke:rgb(0,231,142);stroke-width:0.48px;"/>
                        </g>
                        <g transform="matrix(7.79665,0,0,13.1569,-3404,-4989.07)">
                            <path d="M436.597,-86.158L649.028,-17.136L780.317,163.569L780.317,386.931L649.028,567.635L436.597,636.658L224.167,567.635L92.878,386.931L92.878,163.569L224.167,-17.136L436.597,-86.158Z" style="fill:rgb(0,231,142);fill-opacity:0.07;stroke:rgb(0,231,142);stroke-width:0.41px;"/>
                        </g>
                        <g transform="matrix(9.03465,0,0,15.246,-3944.5,-5564.1)">
                            <path d="M436.597,-86.158L649.028,-17.136L780.317,163.569L780.317,386.931L649.028,567.635L436.597,636.658L224.167,567.635L92.878,386.931L92.878,163.569L224.167,-17.136L436.597,-86.158Z" style="fill:rgb(0,231,142);fill-opacity:0.07;stroke:rgb(0,231,142);stroke-width:0.35px;"/>
                        </g>
                    </g>
                </g>
            </g>
            <g transform="matrix(0.554293,0,0,0.935369,398.566,-460.887)">
                <g transform="matrix(-0.327102,4.00584e-17,-2.70124e-17,-0.220573,830.263,1352.19)">
                    <path d="M1427.34,1522.94C1428.75,1525.76 1429.07,1529.46 1428.19,1532.72L1227.59,2273.41C1226.47,2277.54 1223.66,2280.1 1220.66,2279.71L1195.16,2276.37C1192.17,2275.98 1189.71,2272.73 1189.09,2268.37L1132.02,1862.77C1131.36,1858.09 1128.58,1854.74 1125.35,1854.74L951.636,1854.74C948.41,1854.74 945.626,1858.09 944.967,1862.77L887.894,2268.37C887.28,2272.73 884.815,2275.98 881.825,2276.37L856.322,2279.71C853.332,2280.1 850.521,2277.54 849.402,2273.41L648.801,1532.72C647.918,1529.46 648.24,1525.76 649.65,1522.94L952.226,917.783C953.511,915.213 955.541,913.698 957.698,913.698L1119.29,913.698C1121.45,913.698 1123.48,915.213 1124.76,917.783L1427.34,1522.94ZM985.801,1404.01L985.801,1638.15C985.801,1643.73 988.851,1648.25 992.613,1648.25L1084.38,1648.25C1088.14,1648.25 1091.19,1643.73 1091.19,1638.15L1091.19,1404.01C1091.19,1398.43 1094.24,1393.9 1098,1393.9L1172.68,1393.9C1175.2,1393.9 1177.51,1391.85 1178.69,1388.55C1179.88,1385.26 1179.74,1381.26 1178.33,1378.16L1084.89,1172.16C1083.62,1169.37 1081.51,1167.7 1079.24,1167.7L997.75,1167.7C995.483,1167.7 993.364,1169.37 992.098,1172.16L898.656,1378.16C897.251,1381.26 897.112,1385.26 898.295,1388.55C899.479,1391.85 901.791,1393.9 904.308,1393.9L978.989,1393.9C982.751,1393.9 985.801,1398.43 985.801,1404.01Z" style="fill:rgb(0,231,142);"/>
                </g>
                <g transform="matrix(0.770745,0,0,0.770745,179.626,483.458)">
                    <g transform="matrix(1,0,0,1,9.05149,0)">
                        <path d="M868.267,693.942L868.267,805.816C868.267,807.499 866.903,808.863 865.22,808.863L819.52,808.863C817.837,808.863 816.473,807.499 816.473,805.816L816.473,699.791C816.473,683.668 812.824,671.472 805.223,663.295C797.712,655.215 786.972,651.289 773.088,651.289C757.21,651.289 744.636,655.979 735.432,665.529C726.164,675.144 721.661,689.031 721.661,707.103L721.661,805.816C721.661,807.499 720.297,808.863 718.614,808.863L672.913,808.863C671.23,808.863 669.866,807.499 669.866,805.816L669.866,610.584C669.866,608.901 671.23,607.537 672.913,607.537L716.42,607.537C718.103,607.537 719.467,608.901 719.467,610.584C719.467,610.584 719.467,628.07 719.468,628.07C735.053,612.974 756.439,605.343 783.691,605.343C796.509,605.343 808.068,607.243 818.373,611.013C828.801,614.828 837.697,620.431 845.073,627.807C852.439,635.172 858.17,644.433 862.234,655.609C866.243,666.634 868.267,679.409 868.267,693.942Z" style="fill:white;"/>
                    </g>
                    <g transform="matrix(1.29745,0,0,1.29745,-199.332,-643.172)">
                        <path d="M858.963,963.978L894.186,963.978C895.483,963.978 896.535,965.029 896.535,966.326L896.535,1116.8C896.535,1118.1 895.483,1119.15 894.186,1119.15L858.963,1119.15C857.666,1119.15 856.614,1118.1 856.614,1116.8L856.614,966.326C856.614,965.029 857.666,963.978 858.963,963.978Z" style="fill:white;"/>
                    </g>
                    <g transform="matrix(1.29745,0,0,1.29745,-199.332,-875.867)">
                        <path d="M858.963,1082.74L894.186,1082.74C895.483,1082.74 896.535,1083.79 896.535,1085.09L896.535,1116.8C896.535,1118.1 895.483,1119.15 894.186,1119.15L858.963,1119.15C857.666,1119.15 856.614,1118.1 856.614,1116.8L856.614,1085.09C856.614,1083.79 857.666,1082.74 858.963,1082.74Z" style="fill:rgb(0,231,142);"/>
                    </g>
                    <g transform="matrix(1,0,0,1,-7.71301,0)">
                        <path d="M1148.3,797.572C1142.63,802.206 1135.76,805.698 1127.65,808.015C1119.7,810.284 1111.32,811.422 1102.5,811.422C1080.12,811.422 1062.87,805.454 1050.67,793.758C1038.43,782.031 1032.18,765 1032.18,742.567C1032.18,742.567 1032.18,651.654 1032.18,651.654L1003.05,651.654C1001.37,651.654 1000,650.29 1000,648.607L1000,612.047C1000,610.364 1001.37,609 1003.05,609L1032.18,609L1032.18,567.443C1032.18,565.76 1033.54,564.396 1035.22,564.396L1080.92,564.396C1082.61,564.396 1083.97,565.76 1083.97,567.443L1083.97,609L1133.21,609C1134.89,609 1136.25,610.364 1136.25,612.047L1136.25,648.607C1136.25,650.29 1134.89,651.654 1133.21,651.654L1083.97,651.654L1083.97,741.47C1083.97,750.278 1085.85,756.933 1089.93,761.337C1093.93,765.661 1099.98,767.671 1107.98,767.671C1117.46,767.671 1125.37,765.243 1131.69,760.279C1132.45,759.684 1133.44,759.482 1134.37,759.734C1135.3,759.986 1136.06,760.663 1136.41,761.56L1149.2,794.098C1149.69,795.33 1149.32,796.734 1148.3,797.572Z" style="fill:white;"/>
                    </g>
                    <g transform="matrix(1,0,0,1,-2.38579,0)">
                        <path d="M1360.25,725.872C1360.25,725.872 1210.82,725.872 1210.82,725.871C1213.79,737.974 1220.13,747.6 1229.88,754.731C1240.73,762.662 1254.21,766.574 1270.31,766.574C1290.87,766.574 1307.83,759.834 1321.15,746.28C1321.74,745.675 1322.56,745.345 1323.41,745.371C1324.26,745.396 1325.06,745.775 1325.62,746.416L1350.11,774.567C1351.1,775.698 1351.11,777.375 1350.15,778.524C1341.06,789.386 1329.57,797.604 1315.68,803.161C1301.94,808.658 1286.45,811.422 1269.21,811.422C1252.73,811.422 1237.69,808.851 1224.08,803.732C1210.4,798.588 1198.68,791.426 1188.89,782.266C1179.07,773.075 1171.51,762.186 1166.23,749.596C1160.96,737.059 1158.31,723.27 1158.31,708.241C1158.06,693.673 1160.58,680.047 1165.86,667.362C1171.13,654.674 1178.42,643.684 1187.72,634.387C1197.03,625.083 1208.09,617.848 1220.91,612.693C1233.7,607.551 1247.49,605.096 1262.28,605.343C1277.07,605.345 1290.66,607.864 1303.07,612.877C1315.53,617.911 1326.29,624.962 1335.35,634.022C1344.41,643.085 1351.47,654.032 1356.5,666.871C1361.51,679.637 1364.02,693.778 1364.02,709.297C1364.02,711.052 1363.96,713.059 1363.84,715.316C1363.71,717.533 1363.53,720.12 1363.28,723.077C1363.15,724.657 1361.83,725.872 1360.25,725.872ZM1210.32,689.432C1210.32,689.432 1313.88,689.432 1313.88,689.432C1311.59,677.65 1306.16,667.967 1297.55,660.402C1288.1,652.105 1276.32,647.998 1262.26,647.998C1248.42,647.998 1236.7,652 1227.12,660.076C1218.38,667.448 1212.8,677.244 1210.32,689.432Z" style="fill:white;"/>
                    </g>
                    <g transform="matrix(1,0,0,1,-9.69783,0)">
                        <path d="M1458.35,600.348L1458.35,609L1509.05,609C1510.73,609 1512.09,610.364 1512.09,612.047L1512.09,648.607C1512.09,650.29 1510.73,651.654 1509.05,651.654L1459.81,651.654L1459.81,805.816C1459.81,807.499 1458.45,808.863 1456.76,808.863L1411.06,808.863C1409.38,808.863 1408.02,807.499 1408.02,805.816C1408.02,805.816 1408.02,651.654 1408.02,651.654L1378.89,651.654C1377.21,651.654 1375.84,650.29 1375.84,648.607L1375.84,612.047C1375.84,610.364 1377.21,609 1378.89,609C1378.89,609 1408.02,609 1408.02,608.999L1408.02,599.616C1408.02,577.467 1414.48,560.193 1427.21,547.718C1439.91,535.272 1457.78,528.933 1480.89,528.933C1499.2,528.933 1513.54,532.721 1523.97,540.095C1525.1,540.893 1525.55,542.35 1525.06,543.646L1512.27,578.012C1511.94,578.9 1511.21,579.583 1510.31,579.861C1509.4,580.14 1508.42,579.982 1507.65,579.434C1500.62,574.447 1492.8,571.953 1484.18,571.953C1475.58,571.953 1469.07,574.143 1464.77,578.828C1460.38,583.599 1458.35,590.804 1458.35,600.348Z" style="fill:white;"/>
                    </g>
                    <g transform="matrix(1,0,0,1,-9.69783,0)">
                        <path d="M1517.7,708.189L1517.7,708.174C1517.7,693.122 1520.41,679.325 1525.81,666.78C1531.21,654.207 1538.63,643.397 1548.07,634.344C1557.48,625.302 1568.72,618.2 1581.78,613.051C1594.79,607.92 1609.06,605.343 1624.58,605.343C1640.09,605.343 1654.36,607.92 1667.37,613.051C1680.42,618.196 1691.72,625.294 1701.25,634.33C1710.81,643.387 1718.3,654.201 1723.71,666.78C1729.11,679.332 1731.82,693.137 1731.82,708.2C1731.82,723.263 1729.11,737.068 1723.71,749.62C1718.31,762.191 1710.82,773.062 1701.27,782.239C1691.73,791.405 1680.43,798.567 1667.37,803.715C1654.36,808.843 1640.11,811.42 1624.62,811.422C1609.58,811.672 1595.48,809.157 1582.31,803.892C1569.14,798.625 1557.74,791.408 1548.08,782.252C1538.39,773.071 1530.84,762.131 1525.44,749.427C1520.04,736.747 1517.45,723.002 1517.7,708.189ZM1679.66,708.2C1679.66,699.582 1678.27,691.66 1675.48,684.439C1672.7,677.277 1668.9,671.149 1664.05,666.066C1659.23,661.012 1653.42,657.111 1646.64,654.354C1639.81,651.574 1632.45,650.192 1624.58,650.192C1616.47,650.192 1609.06,651.569 1602.34,654.348C1595.68,657.106 1589.93,661.01 1585.1,666.066C1580.26,671.138 1576.52,677.253 1573.87,684.399C1571.19,691.632 1569.86,699.567 1569.86,708.2C1569.86,717.064 1571.18,725.055 1573.87,732.169C1576.52,739.202 1580.26,745.26 1585.1,750.334C1589.93,755.391 1595.68,759.295 1602.34,762.053C1609.06,764.832 1616.47,766.208 1624.58,766.208C1632.45,766.208 1639.81,764.826 1646.64,762.046C1653.42,759.289 1659.23,755.388 1664.05,750.334C1668.9,745.249 1672.71,739.178 1675.48,732.128C1678.28,725.026 1679.66,717.048 1679.66,708.2Z" style="fill:white;"/>
                    </g>
                    <g transform="matrix(1,0,0,1,-20.3003,0)">
                        <path d="M1887.92,807.629L1840.27,743.288L1792.27,807.638C1791.69,808.409 1790.79,808.863 1789.83,808.863L1739.38,808.863C1738.21,808.863 1737.15,808.204 1736.64,807.164C1736.13,806.123 1736.25,804.881 1736.96,803.961C1736.96,803.961 1811.59,706.725 1811.59,706.725L1740.24,612.423C1739.54,611.501 1739.42,610.263 1739.94,609.227C1740.45,608.192 1741.51,607.537 1742.66,607.537L1793.48,607.537C1794.44,607.537 1795.35,607.99 1795.92,608.758L1841.38,669.48L1886.83,608.758C1887.41,607.99 1888.31,607.537 1889.27,607.537L1938.63,607.537C1939.79,607.537 1940.85,608.196 1941.36,609.236C1941.87,610.276 1941.75,611.517 1941.05,612.438L1869.35,706.007L1944.34,803.964C1945.04,804.884 1945.16,806.125 1944.65,807.165C1944.14,808.205 1943.08,808.863 1941.92,808.863L1890.37,808.863C1889.4,808.863 1888.49,808.405 1887.92,807.629Z" style="fill:white;"/>
                    </g>
                </g>
            </g>
            <g transform="matrix(0.845986,0,0,1.4276,656.738,398.778)">
                <g transform="matrix(29.5222,0,0,29.5222,660.293,237.578)">
                </g>
                <text x="65.332px" y="237.578px" style="font-family:'CMGSans-Regular', 'CMG Sans';font-size:29.522px;fill:rgb(214,214,214);">D<tspan x="90.455px 109.704px 136.392px 157.117px 165.796px 185.045px 205.799px 226.553px 235.026px 253.92px 274.674px 293.922px 306.647px 315.326px 326.072px 342.811px 351.284px 368.968px 381.544px 402.299px 419.658px 438.139px 453.313px 461.786px 482.54px 503.265px 524.019px 532.492px 554.427px 563.106px 583.86px 600.599px 609.279px 617.958px 633.133px 645.857px " y="237.578px 237.578px 237.578px 237.578px 237.578px 237.578px 237.578px 237.578px 237.578px 237.578px 237.578px 237.578px 237.578px 237.578px 237.578px 237.578px 237.578px 237.578px 237.578px 237.578px 237.578px 237.578px 237.578px 237.578px 237.578px 237.578px 237.578px 237.578px 237.578px 237.578px 237.578px 237.578px 237.578px 237.578px 237.578px 237.578px ">ownload Spotify Tracks and Playlists</tspan></text>
            </g>
        </g>
    </g>
    <defs>
        <linearGradient id="_Linear2" x1="0" y1="0" x2="1" y2="0" gradientUnits="userSpaceOnUse" gradientTransform="matrix(1.73039e-14,272.118,-282.595,1.66624e-14,495.796,27.8816)"><stop offset="0" style="stop-color:rgb(5,5,5);stop-opacity:1"/><stop offset="1" style="stop-color:rgb(21,21,21);stop-opacity:1"/></linearGradient>
    </defs>
</svg>
